<svg xmlns="http://www.w3.org/2000/svg" width="1024" height="1024">
    <path d="M0 0h1024v1024H0z" style="fill:#992D22;fill-opacity:1;stroke-width:1.48193;stroke-miterlimit:4;stroke-dasharray:none"/>
    <path fill="#da9f83" d="M767.32 510.22c6.234 70.01-31.353 131.482-72.75 183.813-34.694 38.46-84.358 54.68-134.037 64.528-48.158 16.4-101.887 11.13-146.31-13.478-15.571-6.475-33.853-8.418-47.692-17.71-43.354-27.799-68.125-74.196-87.024-120.91-24.5-43.913-26.202-97.629-21.293-146.707 3.298-16.67 14.562-30.6 20.901-45.946 10.978-32.03 28.853-59.68 53.745-82.45 11.836-11.85 20.736-27.452 34.68-36.804 13.84-9.291 31.669-11.415 47.24-17.89 15.3-6.355 29.635-16.264 46.26-19.562 16.143-3.208 33.144 1.596 50.22 1.596 33.657-.843 67.494 2.229 99.012 11.882 15.57 6.475 26.82 20.782 40.659 30.073 13.944 9.367 30.102 15.662 41.923 27.513 24.14 23.583 44.935 51.367 59.332 82.013 9.788 31.76 14.41 66.095 15.134 100.039z"/>
    <path fill="#8a4b38" d="M581.675 496.32c17.725-5.798 36.804 3.93 42.572 21.685 5.782 17.755-3.916 36.85-21.7 42.633-17.784 5.783-58.292 3.027-64.075-14.728-5.768-17.785 25.404-43.838 43.203-49.59zM710.73 486.2c-5.722 6.807-15.887 7.71-22.694 1.973-6.806-5.738-7.695-15.888-1.972-22.71 5.737-6.791 22.799-15.917 29.605-10.195 6.822 5.738.798 24.11-4.94 30.932zM379.437 380.785c-5.723 6.807-15.887 7.71-22.694 1.973-6.806-5.737-7.695-15.872-1.973-22.71 5.738-6.791 22.8-15.917 29.606-10.194 6.821 5.737.798 24.11-4.94 30.931Zm182.105-28.522c-11.264-7.198-14.592-22.167-7.379-33.431 7.213-11.28 22.182-14.578 33.46-7.38 11.28 7.214 28.19 30.872 20.993 42.136-7.229 11.295-35.795 5.904-47.074-1.325zm-119.356 93.623c-7.755-16.053-.963-35.404 15.134-43.13 16.098-7.725 35.403-.918 43.129 15.18 7.725 16.114 10.27 54.861-5.828 62.557-16.128 7.74-44.74-18.478-52.435-34.607zm15.42 212.32c9.066-13.161 27.106-16.504 40.237-7.408 13.162 9.11 16.475 27.121 7.38 40.283-9.096 13.162-38.07 32.332-51.2 23.251-13.177-9.095-5.512-42.979 3.584-56.125zm150.784-6.113c-10.346-6.566-13.388-20.3-6.762-30.63 6.596-10.316 20.315-13.343 30.645-6.732 10.33 6.596 25.826 28.28 19.215 38.581-6.596 10.361-32.768 5.407-43.098-1.22zm-284.25-133.59c11.476-12.846 31.188-13.946 44.018-2.456 12.83 11.506 13.914 31.188 2.424 44.004-11.49 12.86-45.056 29.44-57.87 17.935-12.86-11.49-.076-46.668 11.429-59.484Z"/>
</svg>